HIERARCHY
ROOT Hips
{
	OFFSET	0.00	0.00	0.00
	CHANNELS 6 Xposition Yposition Zposition Zrotation Xrotation Yrotation
	JOINT Spine
	{
		OFFSET	 0.00	0.01	 0.00
		CHANNELS 3 Zrotation Xrotation Yrotation
		JOINT Spine1
		{
			OFFSET	 0.00	 2.45913012437421	 0.00
			CHANNELS 3 Zrotation Xrotation Yrotation
            JOINT Neck
            {
                OFFSET	 0.00	 2.48462964506057	 0.00
                CHANNELS 3 Zrotation Xrotation Yrotation
                JOINT Head
                {
                    OFFSET	 0.00	 0.927524780924562	 0.00
                    CHANNELS 3 Zrotation Xrotation Yrotation
                    End Site 
                    {
                        OFFSET	 0.00	 1.14999962169752	 0.00
                    }
                }
            }
			JOINT LeftShoulder
			{
				OFFSET	 0.00	 2.48462964506057	 0.00
				CHANNELS 3 Zrotation Xrotation Yrotation
				JOINT LeftUpArm
				{
					OFFSET	 0.00	 1.24881979654096	 0.00
					CHANNELS 3 Zrotation Xrotation Yrotation
					JOINT LeftForeArm
					{
						OFFSET	 0.00	2.59758046908119	 0.00
						CHANNELS 3 Zrotation Xrotation Yrotation
						JOINT LeftHand
						{
							OFFSET	 0.00	2.45542024364365	 0.00
							CHANNELS 3 Zrotation Xrotation Yrotation
							JOINT LeftHandThumb 
							{
								OFFSET	 0.00	0.00	 0.00
								CHANNELS 3 Zrotation Xrotation Yrotation
								End Site
								{
									OFFSET	 0.00	0.00	1.00000003353624
								}
							}
							JOINT L_Wrist_End 
							{
								OFFSET	 0.00	0.99999967115358	 0.00
								CHANNELS 3 Zrotation Xrotation Yrotation
								End Site 
								{
									OFFSET	 0.00	 0.00	 0.00
								}
							}
						}
					}
				}
			}
			JOINT RightShoulder
			{
				OFFSET	 0.00	 2.48462964506057	 0.00
				CHANNELS 3 Zrotation Xrotation Yrotation
				JOINT RightUpArm
				{
					OFFSET	 0.00	 1.24881979654096	 0.00
					CHANNELS 3 Zrotation Xrotation Yrotation
					JOINT RightForeArm
					{
						OFFSET	 0.00	2.59758046908119	 0.00
						CHANNELS 3 Zrotation Xrotation Yrotation
						JOINT RightHand
						{
							OFFSET	 0.00	2.45542024364365	 0.00
							CHANNELS 3 Zrotation Xrotation Yrotation
							JOINT RightHandThumb 
							{
								OFFSET	 0.00	0.00	 0.00
								CHANNELS 3 Zrotation Xrotation Yrotation
								End Site
								{
									OFFSET	 0.00	0.00	1.00000003353624
								}
							}
							JOINT R_Wrist_End 
							{
								OFFSET	 0.00	0.99999967115358	 0.00
								CHANNELS 3 Zrotation Xrotation Yrotation
								End Site 
								{
									OFFSET	 0.00	 0.00	 0.00
								}
							}
						}
					}
				}
			}
		}
	}
	JOINT LeftUpLeg
	{
		OFFSET	 1.2719394002717	 0.00	 0.00
		CHANNELS 3 Zrotation Xrotation Yrotation
		JOINT LeftLowLeg
		{
			OFFSET	 0.00	-4.3429100912261	 0.00
			CHANNELS 3 Zrotation Xrotation Yrotation
			JOINT LeftFoot
			{
				OFFSET	 0.00	-4.48767017425826	 0.00
				CHANNELS 3 Zrotation Xrotation Yrotation
				JOINT LeftToeBase
                {
                    OFFSET	 0.00	0.00	 1.51507020887566
                    CHANNELS 3 Zrotation Xrotation Yrotation
                    End Site 
                    {
                        OFFSET	 0.00	0.00	 0.75000010571191
                    }
                }
			}
		}
	}
	JOINT RightUpLeg
	{
		OFFSET	 -1.2719393604653	 0.00	 0.00
		CHANNELS 3 Zrotation Xrotation Yrotation
		JOINT RightLowLeg
		{
			OFFSET	 0.00	-4.3429100912261	 0.00
			CHANNELS 3 Zrotation Xrotation Yrotation
			JOINT RightFoot
			{
				OFFSET	 0.00	-4.48767017425826	 0.00
				CHANNELS 3 Zrotation Xrotation Yrotation
				JOINT RightToeBase
                {
                    OFFSET	 0.00	0.00	 1.51507020887566
                    CHANNELS 3 Zrotation Xrotation Yrotation
                    End Site 
                    {
                        OFFSET	 0.00	0.00	 0.749999965609858
                    }
                }   
			}
		}
	}
}
MOTION 
Frames:	6 
Frame Time: 0.02 
 -0.37543201446533203 11.049300537109374 10.488599853515625 -43.6985 83.6591 45.4515 3.96215 -19.7767 -3.00414 -5.16233 39.8276 4.27055 2.86048 32.6943 0.20791 20.1378 -66.3299 14.4695 -118.6505 3.4212 -14.2056 -34.2628 0.463297 36.1093 0.0 29.1966 0.0 9.98508 -6.57304 0.330094 0.0 0.0 0.0 0.0 0.0 0.0 119.7777 0.247801 5.61306 39.0911 4.49691 -23.3175 0.0 23.5478 0.0 -1.10557 -2.73888 2.04432 0.0 0.0 0.0 0.0 0.0 0.0 5.61306 11.5968 12.7671 0.0 0.757138 0.0 -8.2063 8.51726 6.16954 0.0 -9.12299 0.0 3.49166 3.82369 8.7495 0.0 12.7575 0.0 23.087 5.67183 -25.8502 0.0 -14.592683 0.0 
  -0.4388819885253906 11.026099853515625 10.48760009765625 -43.6788 83.5916 45.7021 3.82074 -19.9372 -3.14317 -4.91268 39.7106 4.34126 3.00202 32.8458 0.00557482 20.0134 -66.3234 14.3559 -118.5949 3.61171 -14.0352 -34.0671 0.68027 35.9298 0.0 30.2738 0.0 10.3498 -6.6238 0.384366 0.0 0.0 0.0 0.0 0.0 0.0 119.6864 0.0625207 5.88866 39.2383 4.16632 -23.2606 0.0 23.851 0.0 -1.31306 -2.65239 2.21755 0.0 0.0 0.0 0.0 0.0 0.0 6.07926 11.7046 12.6511 0.0 0.727471 0.0 -8.4747 8.59115 6.0125 0.0 -9.15654 0.0 3.90107 4.19388 8.67649 0.0 12.4355 0.0 22.8503 5.52791 -25.9844 0.0 -13.96827 0.0 
  -0.5050719833374023 11.00239990234375 10.48699951171875 -43.4499 83.484 45.7568 3.39445 -20.0498 -3.65295 -4.23399 39.6128 4.38238 2.66387 33.1178 0.232747 19.6992 -66.4129 13.8668 -118.843796 3.62036 -14.0509 -33.8526 0.876493 35.9891 0.0 31.2652 0.0 11.0305 -6.31304 0.141046 0.0 0.0 0.0 0.0 0.0 0.0 119.3609 0.00286356 5.91199 39.3015 3.99769 -23.2018 0.0 24.1994 0.0 -1.85504 -2.66712 2.72722 0.0 0.0 0.0 0.0 0.0 0.0 6.58224 11.8421 12.6067 0.0 0.714234 0.0 -8.73349 8.69438 5.77019 0.0 -9.21803 0.0 4.34615 4.64671 8.67723 0.0 12.0357 0.0 22.6547 5.38725 -26.2378 0.0 -13.43953 0.0 
  -0.5721170043945313 10.98050048828125 10.48550048828125 -43.6803 83.4239 46.1915 2.98284 -20.1628 -4.13254 -3.52497 39.4313 4.46689 2.33804 33.4558 0.422886 19.312 -66.515 13.3594 -119.1104 3.72577 -14.0118 -33.6694 0.953474 35.6791 0.0 32.1835 0.0 11.3903 -6.07364 0.175248 0.0 0.0 0.0 0.0 0.0 0.0 119.0576 -0.0625327 5.87764 39.2875 3.87331 -23.0522 0.0 24.6617 0.0 -2.40097 -2.62224 3.34108 0.0 0.0 0.0 0.0 0.0 0.0 7.08277 11.8788 12.6628 0.0 0.777252 0.0 -8.98901 8.75688 5.50612 0.0 -9.28086 0.0 4.80011 4.96997 8.80913 0.0 11.7325 0.0 22.5309 5.15009 -26.4473 0.0 -12.88369 0.0 
  -0.6407959747314453 10.959200439453125 10.483800048828124 -44.0176 83.3565 46.6694 2.61044 -20.2799 -4.57189 -2.85767 39.2816 4.55686 1.99647 33.7643 0.601419 18.8678 -66.597 12.7069 -119.3486 3.78756 -14.0437 -33.5005 0.967407 35.4323 0.0 33.0526 0.0 11.8295 -5.76376 -0.332622 0.0 0.0 0.0 0.0 0.0 0.0 118.7507 -0.0978347 5.81901 39.2911 3.84038 -22.8958 0.0 25.0693 0.0 -3.05335 -2.32536 3.89147 0.0 0.0 0.0 0.0 0.0 0.0 7.59879 11.8916 12.7478 0.0 0.899503 0.0 -9.22831 8.807449 5.28212 0.0 -9.386351 0.0 5.27347 5.34059 9.04241 0.0 11.2852 0.0 22.3633 4.9962997 -26.7839 0.0 -12.394381 0.0 
  -0.7101039886474609 10.9397998046875 10.481800537109375 -44.1835 83.2838 46.9836 2.15898 -20.3395 -5.10334 -2.09778 39.139 4.64138 1.57603 34.0791 0.864506 18.3877 -66.6766 12.0388 -119.6188 3.83467 -14.128 -33.387 0.906435 35.1657 0.0 33.8645 0.0 12.4658 -5.55584 -0.86187 0.0 0.0 0.0 0.0 0.0 0.0 118.3994 -0.0950039 5.78826 39.268 3.83349 -22.8188 0.0 25.4991 0.0 -3.593 -2.09581 4.26516 0.0 0.0 0.0 0.0 0.0 0.0 8.11806 11.8386 12.8636 0.0 1.1547 0.0 -9.45149 8.80364 5.04529 0.0 -9.41296 0.0 5.73476 5.68304 9.125 0.0 10.897 0.0 22.0846 4.9263 -27.0115 0.0 -11.77569 0.0 
